# xmcd
#
# Track frame offsets:
#	150
#	24750
#	44496
#	61098
#	72203
#	82303
#	97273
#	116640
#	130851
#	156198
#
# Disc length: 2197 seconds
#
# Revision: 1
# Processed by: cddbd v1.5.2PL0 Copyright (c) Steve Scherf et al.
# Submitted via: audiograbber 1.83.01
#
DISCID=8608930a
DTITLE=Ten Years after -  A space in time
DYEAR=1900
DGENRE=
TTITLE0=One of these days
TTITLE1=Here they come 
TTITLE2=I'd love to change the world 
TTITLE3=Over the hill 
TTITLE4=Baby won't you let me rock 'n roll you
TTITLE5=Once there was a time
TTITLE6=Let the sky fall 
TTITLE7=Hard monkeys
TTITLE8=I've been there too
TTITLE9=Uncle Jam 
EXTD=
EXTT0=
EXTT1=
EXTT2=
EXTT3=
EXTT4=
EXTT5=
EXTT6=
EXTT7=
EXTT8=
EXTT9=
PLAYORDER=
